<svg width="732" height="437" viewBox="0 0 732 437" fill="none" xmlns="http://www.w3.org/2000/svg">
<g clip-path="url(#clip0_6_177)">
<rect width="731.662" height="436.38" fill="white"/>
<path d="M43.1117 334.772C21.5763 326.938 2.88216 308.198 0.510681 285.405C21.4169 298.968 46.4468 304.7 71.1719 301.585C80.7029 300.349 91.1751 297.982 99.3312 303.066C104.406 306.229 107.557 311.846 109.002 317.649C110.447 323.452 110.382 329.509 110.308 335.489L110.979 336.823C88.4829 341.19 64.6471 342.606 43.1117 334.772Z" fill="#F5F6F7"/>
<path d="M0.977888 285.291C11.9523 300.762 27.5225 312.382 45.4767 318.5C49.3185 319.885 53.3546 320.657 57.4366 320.786C61.417 320.783 65.324 319.714 68.7517 317.69C71.9855 315.867 75.0823 313.629 78.7029 312.624C80.5638 312.137 82.5067 312.049 84.404 312.366C86.3013 312.682 88.1102 313.397 89.7122 314.461C93.7727 317.011 96.6751 320.867 99.3823 324.737C102.388 329.034 105.442 333.544 110.134 336.153C110.703 336.469 110.179 337.333 109.612 337.017C101.448 332.479 98.4253 322.852 91.4765 317C88.2341 314.27 84.1491 312.499 79.8641 313.382C76.117 314.153 72.9216 316.459 69.6632 318.333C66.3484 320.356 62.5886 321.537 58.7123 321.772C54.6369 321.851 50.5778 321.237 46.7086 319.954C37.9519 317.206 29.6817 313.098 22.201 307.781C13.6298 301.76 6.1517 294.317 0.0903148 285.774C-0.284625 285.245 0.605398 284.766 0.977888 285.291V285.291Z" fill="#CCD0D5"/>
<path d="M39.5796 316.87C38.1442 319.743 35.7343 322.012 32.7803 323.272C29.8263 324.533 26.5205 324.702 23.4533 323.75C22.8333 323.555 23.1069 322.582 23.7276 322.777C26.5822 323.669 29.6615 323.511 32.4099 322.332C35.1583 321.153 37.3947 319.03 38.7154 316.347C39.0031 315.764 39.8656 316.291 39.5796 316.87V316.87Z" fill="#CCD0D5"/>
<path d="M67.2337 318.83C65.2115 312.584 60.9095 307.33 55.1853 304.115C54.618 303.797 55.1414 302.933 55.7081 303.251C61.6585 306.608 66.1244 312.085 68.2145 318.589C68.4132 319.209 67.4315 319.447 67.2337 318.83Z" fill="#CCD0D5"/>
<path d="M14.7716 301.06C15.5586 300.064 16.086 298.888 16.3063 297.638C16.5266 296.388 16.433 295.103 16.0338 293.898C15.8273 293.281 16.8094 293.043 17.0146 293.657C17.4494 294.99 17.551 296.409 17.3107 297.791C17.0703 299.173 16.4953 300.475 15.6358 301.583C15.5635 301.694 15.4516 301.773 15.3228 301.805C15.194 301.837 15.0579 301.818 14.9423 301.753C14.8282 301.684 14.7463 301.572 14.7144 301.442C14.6824 301.312 14.703 301.175 14.7716 301.06V301.06Z" fill="#CCD0D5"/>
<path d="M54.8632 230.035C55.0031 230.417 55.143 230.798 55.2912 231.182C57.1991 236.305 59.52 241.265 62.231 246.012C62.4348 246.382 62.6469 246.754 62.8608 247.118C69.5142 258.485 78.2202 268.517 88.536 276.706C92.644 279.961 96.9935 282.898 101.547 285.493C107.836 289.076 114.94 292.461 119.542 297.756C120.029 298.303 120.481 298.88 120.896 299.483L112.554 335.901C112.494 335.975 112.441 336.05 112.381 336.124L112.114 337.593C111.87 337.476 111.619 337.349 111.375 337.231C111.233 337.164 111.093 337.088 110.951 337.021C110.857 336.973 110.763 336.925 110.675 336.888C110.644 336.872 110.613 336.856 110.59 336.842C110.502 336.804 110.425 336.76 110.346 336.724C108.942 336.018 107.541 335.301 106.142 334.573C106.134 334.571 106.134 334.571 106.128 334.561C95.4182 329.112 85.3928 322.413 76.2617 314.602C75.9923 314.366 75.7146 314.127 75.4491 313.874C71.4325 310.306 67.7143 306.415 64.3316 302.241C62.4866 299.95 60.7589 297.567 59.1549 295.1C55.0229 288.72 51.9201 281.73 49.9603 274.385C46.0557 259.744 46.8772 244.017 54.2873 231.022C54.4771 230.69 54.6651 230.365 54.8632 230.035Z" fill="#F5F6F7"/>
<path d="M55.3067 230.223C54.7546 249.183 60.1907 267.834 70.8428 283.529C73.0759 286.948 75.8341 289.994 79.0158 292.555C82.1958 294.949 85.9588 296.448 89.914 296.896C93.5934 297.387 97.414 297.464 100.91 298.842C102.689 299.574 104.293 300.673 105.617 302.068C106.941 303.463 107.956 305.123 108.594 306.937C110.301 311.418 110.296 316.244 110.128 320.964C109.941 326.204 109.664 331.645 111.84 336.552C112.103 337.147 111.165 337.521 110.902 336.928C107.116 328.389 110.499 318.883 108.474 310.027C107.529 305.894 105.333 302.022 101.38 300.146C97.9241 298.506 93.9844 298.423 90.2547 297.958C86.3899 297.577 82.677 296.257 79.4404 294.11C76.1387 291.72 73.2677 288.786 70.9505 285.432C65.6134 277.966 61.4835 269.706 58.7119 260.957C55.4934 250.989 54.0038 240.544 54.3075 230.073C54.3266 229.425 55.3256 229.579 55.3066 230.223L55.3067 230.223Z" fill="#CCD0D5"/>
<path d="M67.1154 278.677C64.2396 280.107 60.9492 280.468 57.8318 279.695C54.7145 278.923 51.9732 277.068 50.0975 274.461C49.7198 273.932 50.5237 273.32 50.902 273.85C52.6441 276.281 55.1979 278.009 58.1022 278.722C61.0065 279.435 64.0702 279.087 66.7402 277.739C67.3207 277.447 67.6926 278.387 67.1154 278.677V278.677Z" fill="#CCD0D5"/>
<path d="M88.0155 296.892C90.1614 290.687 89.8899 283.902 87.2551 277.889C86.9936 277.293 87.9316 276.919 88.1928 277.514C90.923 283.776 91.1912 290.838 88.9439 297.29C88.7293 297.905 87.8021 297.503 88.0155 296.892Z" fill="white"/>
<path d="M56.8265 251.118C58.0544 250.796 59.1834 250.175 60.1119 249.31C61.0404 248.444 61.7395 247.362 62.1462 246.159C62.353 245.542 63.28 245.944 63.0746 246.557C62.619 247.883 61.8456 249.078 60.8218 250.036C59.798 250.995 58.5551 251.688 57.2016 252.055C57.0769 252.101 56.9397 252.097 56.8178 252.045C56.6958 251.992 56.5983 251.896 56.5451 251.774C56.4961 251.65 56.4981 251.511 56.5508 251.388C56.6035 251.265 56.7025 251.168 56.8264 251.118H56.8265Z" fill="#CCD0D5"/>
<path d="M694.929 334.02C715.338 323.598 731.587 302.702 731.138 279.791C712.058 295.821 687.922 304.585 663.002 304.533C653.391 304.478 642.707 303.417 635.238 309.465C630.59 313.228 628.154 319.189 627.433 325.125C626.712 331.062 627.521 337.066 628.329 342.991L627.828 344.397C650.69 345.966 674.519 344.442 694.929 334.02Z" fill="#F5F6F7"/>
<path d="M730.661 279.735C721.671 296.438 707.647 309.883 690.581 318.162C686.939 320.009 683.028 321.271 678.993 321.9C675.042 322.386 671.034 321.806 667.383 320.219C663.95 318.808 660.601 316.966 656.885 316.414C654.978 316.16 653.039 316.311 651.195 316.859C649.351 317.406 647.644 318.338 646.185 319.591C642.468 322.62 640.062 326.804 637.851 330.978C635.396 335.611 632.92 340.463 628.584 343.628C628.058 344.012 628.684 344.805 629.209 344.422C636.753 338.914 638.569 328.99 644.746 322.328C647.628 319.219 651.465 316.96 655.826 317.309C659.639 317.614 663.094 319.51 666.558 320.969C670.096 322.569 673.972 323.279 677.848 323.036C681.902 322.614 685.855 321.505 689.537 319.757C697.89 315.953 705.592 310.859 712.363 304.663C720.129 297.634 726.636 289.328 731.601 280.105C731.908 279.534 730.966 279.168 730.661 279.735V279.735Z" fill="#CCD0D5"/>
<path d="M696.233 315.819C698.011 318.494 700.681 320.45 703.768 321.337C706.855 322.225 710.156 321.986 713.083 320.664C713.674 320.395 713.283 319.463 712.691 319.733C709.968 320.969 706.892 321.191 704.02 320.359C701.148 319.527 698.667 317.695 697.027 315.194C696.67 314.651 695.878 315.279 696.233 315.819Z" fill="#CCD0D5"/>
<path d="M669.03 321.164C670.269 314.717 673.893 308.973 679.178 305.079C679.702 304.694 679.076 303.901 678.553 304.286C673.06 308.349 669.302 314.333 668.027 321.045C667.906 321.685 668.909 321.8 669.03 321.164H669.03Z" fill="#CCD0D5"/>
<path d="M718.91 297.08C718.006 296.188 717.338 295.086 716.966 293.873C716.594 292.659 716.529 291.372 716.777 290.127C716.906 289.489 715.902 289.374 715.774 290.008C715.506 291.385 715.58 292.806 715.988 294.148C716.396 295.489 717.127 296.711 718.116 297.705C718.202 297.806 718.323 297.872 718.454 297.887C718.586 297.903 718.719 297.868 718.826 297.789C718.93 297.706 718.998 297.584 719.013 297.452C719.029 297.319 718.992 297.185 718.91 297.08H718.91Z" fill="white"/>
<path d="M670.392 231.521C670.3 231.917 670.208 232.313 670.108 232.713C668.845 238.031 667.151 243.238 665.044 248.282C664.887 248.675 664.722 249.071 664.555 249.458C659.349 261.556 651.942 272.583 642.711 281.978C639.034 285.713 635.079 289.162 630.879 292.297C625.078 296.626 618.444 300.858 614.527 306.68C614.112 307.282 613.734 307.91 613.397 308.56L626.151 343.676C626.22 343.742 626.282 343.81 626.351 343.876L626.796 345.301C627.024 345.155 627.257 344.998 627.485 344.851C627.618 344.767 627.747 344.675 627.88 344.59C627.967 344.531 628.055 344.472 628.137 344.424C628.166 344.405 628.195 344.385 628.216 344.368C628.299 344.32 628.37 344.267 628.444 344.222C629.75 343.348 631.053 342.464 632.351 341.569C632.359 341.566 632.359 341.567 632.364 341.556C642.323 334.832 651.449 326.951 659.551 318.078C659.789 317.81 660.035 317.539 660.267 317.255C663.815 313.22 667.027 308.902 669.871 304.344C671.42 301.843 672.842 299.266 674.13 296.621C677.447 289.781 679.667 282.462 680.709 274.933C682.784 259.922 680.036 244.415 671.085 232.43C670.856 232.124 670.629 231.825 670.392 231.521Z" fill="#F5F6F7"/>
<path d="M669.975 231.762C672.853 250.51 669.751 269.689 661.109 286.574C659.313 290.242 656.95 293.604 654.107 296.536C651.246 299.303 647.695 301.253 643.825 302.183C640.234 303.124 636.452 303.67 633.152 305.466C631.477 306.411 630.02 307.7 628.877 309.247C627.734 310.794 626.932 312.566 626.522 314.445C625.378 319.101 625.976 323.891 626.723 328.554C627.553 333.732 628.497 339.097 626.94 344.235C626.752 344.857 627.729 345.113 627.917 344.492C630.625 335.552 626.1 326.534 627.02 317.496C627.45 313.279 629.153 309.166 632.845 306.819C636.074 304.766 639.974 304.2 643.618 303.279C647.407 302.427 650.929 300.66 653.877 298.132C656.86 295.354 659.348 292.089 661.236 288.476C665.615 280.41 668.698 271.706 670.373 262.682C672.342 252.394 672.537 241.845 670.948 231.491C670.85 230.85 669.877 231.125 669.975 231.762V231.762Z" fill="#CCD0D5"/>
<path d="M664.212 281.301C667.241 282.366 670.551 282.32 673.55 281.17C676.549 280.021 679.041 277.842 680.582 275.025C680.892 274.454 680.019 273.945 679.709 274.517C678.279 277.144 675.957 279.172 673.162 280.237C670.367 281.302 667.284 281.333 664.469 280.324C663.857 280.106 663.603 281.084 664.212 281.301V281.301Z" fill="#CCD0D5"/>
<path d="M645.709 301.946C642.817 296.053 642.252 289.285 644.128 282.994C644.314 282.371 643.337 282.114 643.151 282.737C641.211 289.288 641.813 296.329 644.837 302.455C645.125 303.039 645.996 302.527 645.709 301.946V301.946Z" fill="#CCD0D5"/>
<path d="M671.035 252.686C669.777 252.518 668.58 252.04 667.552 251.295C666.524 250.55 665.698 249.562 665.146 248.419C664.865 247.831 663.994 248.344 664.274 248.927C664.889 250.188 665.803 251.278 666.937 252.104C668.071 252.929 669.39 253.464 670.778 253.662C670.907 253.692 671.043 253.671 671.158 253.604C671.272 253.537 671.357 253.43 671.395 253.302C671.428 253.173 671.409 253.035 671.342 252.92C671.274 252.804 671.164 252.72 671.035 252.685V252.686Z" fill="#CCD0D5"/>
<path d="M637.329 14.9999H493.539V24.2499C493.537 24.7235 493.7 25.1832 494 25.5499C493.71 32.7799 493.539 42.0099 493.539 52.0399V299.34C493.539 322.52 494.469 341.38 495.61 341.38H635.259C636.4 341.38 637.329 322.52 637.329 299.34V52.0399C637.329 42.0099 637.159 32.78 636.869 25.5499C637.169 25.1831 637.332 24.7235 637.329 24.2499L637.329 14.9999Z" fill="white"/>
<path d="M635.259 342.38H495.609C494.521 342.38 493.802 342.38 493.148 329.102C492.755 321.133 492.539 310.563 492.539 299.34V52.04C492.539 42.3462 492.703 32.9243 493 25.5098C493.186 21.0581 493.4 17.4922 493.634 14.9097C494.093 9.854 494.53 9 495.609 9H635.259C636.339 9 636.775 9.854 637.235 14.9097C637.47 17.5019 637.683 21.0679 637.868 25.5078L637.868 25.5098C638.166 32.9165 638.329 42.3384 638.329 52.04V299.34C638.329 310.564 638.113 321.134 637.721 329.102C637.067 342.38 636.348 342.38 635.259 342.38ZM496.178 340.38H634.691C635.415 337.647 636.329 322.81 636.329 299.34V52.04C636.329 42.3647 636.166 32.9722 635.87 25.5918H635.87C635.686 21.1836 635.475 17.6504 635.243 15.0903C635.154 13.7152 634.966 12.3483 634.682 11H496.187C495.903 12.3483 495.715 13.7152 495.625 15.0903C495.394 17.6406 495.183 21.1738 494.999 25.5918C494.702 32.9785 494.539 42.3721 494.539 52.04V299.34C494.539 322.809 495.454 337.647 496.178 340.38Z" fill="#DADDE1"/>
<path d="M635.259 9.99988H495.609C495.061 10.0009 494.535 10.2194 494.147 10.6073C493.759 10.9953 493.54 11.5212 493.539 12.0699V24.2499C493.537 24.7235 493.7 25.1832 494 25.5499C494.194 25.7897 494.439 25.9832 494.718 26.1164C494.996 26.2495 495.301 26.3191 495.609 26.3199H635.259C635.568 26.319 635.873 26.2495 636.151 26.1163C636.429 25.9831 636.675 25.7896 636.869 25.5499C637.169 25.1831 637.332 24.7235 637.329 24.2499V12.0699C637.328 11.5212 637.11 10.9953 636.722 10.6074C636.334 10.2194 635.808 10.0009 635.259 9.99988V9.99988Z" fill="#BEC3C9"/>
<path d="M505.559 20.505C507.183 20.505 508.499 19.1889 508.499 17.5654C508.499 15.9418 507.183 14.6257 505.559 14.6257C503.936 14.6257 502.619 15.9418 502.619 17.5654C502.619 19.1889 503.936 20.505 505.559 20.505Z" fill="white"/>
<path d="M516.717 20.505C518.34 20.505 519.656 19.1889 519.656 17.5654C519.656 15.9418 518.34 14.6257 516.717 14.6257C515.093 14.6257 513.777 15.9418 513.777 17.5654C513.777 19.1889 515.093 20.505 516.717 20.505Z" fill="white"/>
<path d="M527.875 20.505C529.499 20.505 530.815 19.1889 530.815 17.5654C530.815 15.9418 529.499 14.6257 527.875 14.6257C526.252 14.6257 524.936 15.9418 524.936 17.5654C524.936 19.1889 526.252 20.505 527.875 20.505Z" fill="white"/>
<path d="M624.329 13.6399H611.479C611.228 13.6416 610.987 13.7422 610.809 13.92C610.632 14.0979 610.531 14.3385 610.529 14.5899C610.525 14.7331 610.56 14.8747 610.629 14.9999C610.706 15.161 610.826 15.2972 610.976 15.3927C611.127 15.4883 611.301 15.5393 611.479 15.5399H624.329C624.509 15.5408 624.685 15.4905 624.838 15.3949C624.99 15.2993 625.112 15.1623 625.19 14.9999C625.251 14.8721 625.282 14.7317 625.279 14.5899C625.279 14.4651 625.255 14.3416 625.207 14.2263C625.159 14.111 625.089 14.0062 625.001 13.918C624.913 13.8297 624.808 13.7598 624.693 13.7121C624.577 13.6644 624.454 13.6398 624.329 13.6399V13.6399Z" fill="white"/>
<path d="M624.329 17.2099H611.479C611.227 17.2099 610.985 17.31 610.807 17.4882C610.629 17.6663 610.529 17.908 610.529 18.1599C610.529 18.4119 610.629 18.6535 610.807 18.8317C610.985 19.0098 611.227 19.1099 611.479 19.1099H624.329C624.581 19.1099 624.823 19.0098 625.001 18.8317C625.179 18.6535 625.279 18.4119 625.279 18.1599C625.279 17.908 625.179 17.6663 625.001 17.4882C624.823 17.31 624.581 17.2099 624.329 17.2099V17.2099Z" fill="white"/>
<path d="M624.329 20.7799H611.479C611.227 20.7799 610.985 20.88 610.807 21.0582C610.629 21.2364 610.529 21.478 610.529 21.7299C610.529 21.9819 610.629 22.2235 610.807 22.4017C610.985 22.5798 611.227 22.6799 611.479 22.6799H624.329C624.581 22.6799 624.823 22.5798 625.001 22.4017C625.179 22.2235 625.279 21.9819 625.279 21.7299C625.279 21.478 625.179 21.2364 625.001 21.0582C624.823 20.88 624.581 20.7799 624.329 20.7799V20.7799Z" fill="white"/>
<path d="M579.329 53.0199H552.889C551.563 53.0205 550.292 53.5474 549.354 54.485C548.417 55.4226 547.89 56.694 547.889 58.0199V80.92C547.891 82.2454 548.419 83.5158 549.356 84.453C550.293 85.3902 551.564 85.9177 552.889 85.92H579.329C580.654 85.9161 581.924 85.388 582.86 84.4512C583.797 83.5144 584.325 82.2448 584.329 80.92V58.0199C584.327 56.6945 583.8 55.424 582.862 54.4868C581.925 53.5496 580.655 53.0221 579.329 53.0199Z" fill="#1A7A67"/>
<path d="M612.179 100.88H520.029C519.427 100.88 518.85 101.119 518.424 101.545C517.999 101.97 517.759 102.548 517.759 103.15C517.759 103.752 517.999 104.329 518.424 104.755C518.85 105.181 519.427 105.42 520.029 105.42H612.179C612.781 105.42 613.359 105.181 613.784 104.755C614.21 104.329 614.449 103.752 614.449 103.15C614.449 102.548 614.21 101.97 613.784 101.545C613.359 101.119 612.781 100.88 612.179 100.88V100.88Z" fill="#DADDE1"/>
<path d="M555.029 111.52H520.029C519.427 111.52 518.85 111.759 518.424 112.185C517.999 112.611 517.759 113.188 517.759 113.79C517.759 114.392 517.999 114.969 518.424 115.395C518.85 115.821 519.427 116.06 520.029 116.06H555.029C555.631 116.06 556.209 115.821 556.635 115.395C557.06 114.969 557.299 114.392 557.299 113.79C557.299 113.188 557.06 112.611 556.635 112.185C556.209 111.759 555.631 111.52 555.029 111.52V111.52Z" fill="#DADDE1"/>
<path d="M579.329 152.02H552.889C551.563 152.02 550.292 152.547 549.354 153.485C548.417 154.423 547.89 155.694 547.889 157.02V179.92C547.891 181.245 548.419 182.516 549.356 183.453C550.293 184.39 551.564 184.918 552.889 184.92H579.329C580.654 184.916 581.924 184.388 582.86 183.451C583.797 182.514 584.325 181.245 584.329 179.92V157.02C584.327 155.695 583.8 154.424 582.862 153.487C581.925 152.55 580.655 152.022 579.329 152.02Z" fill="#1A7A67"/>
<path d="M612.179 199.88H520.029C519.427 199.88 518.85 200.119 518.424 200.545C517.999 200.97 517.759 201.548 517.759 202.15C517.759 202.752 517.999 203.329 518.424 203.755C518.85 204.181 519.427 204.42 520.029 204.42H612.179C612.781 204.42 613.359 204.181 613.784 203.755C614.21 203.329 614.449 202.752 614.449 202.15C614.449 201.548 614.21 200.97 613.784 200.545C613.359 200.119 612.781 199.88 612.179 199.88V199.88Z" fill="#DADDE1"/>
<path d="M555.029 210.52H520.029C519.427 210.52 518.85 210.759 518.424 211.185C517.999 211.611 517.759 212.188 517.759 212.79C517.759 213.392 517.999 213.969 518.424 214.395C518.85 214.821 519.427 215.06 520.029 215.06H555.029C555.631 215.06 556.209 214.821 556.635 214.395C557.06 213.969 557.299 213.392 557.299 212.79C557.299 212.188 557.06 211.611 556.635 211.185C556.209 210.759 555.631 210.52 555.029 210.52V210.52Z" fill="#DADDE1"/>
<path d="M579.329 251.02H552.889C551.563 251.02 550.292 251.547 549.354 252.485C548.417 253.423 547.89 254.694 547.889 256.02V278.92C547.891 280.245 548.419 281.516 549.356 282.453C550.293 283.39 551.564 283.918 552.889 283.92H579.329C580.654 283.916 581.924 283.388 582.86 282.451C583.797 281.514 584.325 280.245 584.329 278.92V256.02C584.327 254.695 583.8 253.424 582.862 252.487C581.925 251.55 580.655 251.022 579.329 251.02V251.02Z" fill="#1A7A67"/>
<path d="M612.179 298.88H520.029C519.427 298.88 518.85 299.119 518.424 299.545C517.999 299.97 517.759 300.548 517.759 301.15C517.759 301.752 517.999 302.329 518.424 302.755C518.85 303.181 519.427 303.42 520.029 303.42H612.179C612.781 303.42 613.359 303.181 613.784 302.755C614.21 302.329 614.449 301.752 614.449 301.15C614.449 300.548 614.21 299.97 613.784 299.545C613.359 299.119 612.781 298.88 612.179 298.88V298.88Z" fill="#DADDE1"/>
<path d="M555.029 309.52H520.029C519.427 309.52 518.85 309.759 518.424 310.185C517.999 310.611 517.759 311.188 517.759 311.79C517.759 312.392 517.999 312.969 518.424 313.395C518.85 313.821 519.427 314.06 520.029 314.06H555.029C555.631 314.06 556.209 313.821 556.635 313.395C557.06 312.969 557.299 312.392 557.299 311.79C557.299 311.188 557.06 310.611 556.635 310.185C556.209 309.759 555.631 309.52 555.029 309.52Z" fill="#DADDE1"/>
<path d="M454.329 3.06989C454.328 2.52123 454.11 1.99535 453.722 1.60738C453.334 1.2194 452.808 1.00096 452.259 0.999878H82.6095C82.0608 1.00094 81.5349 1.21935 81.1468 1.60732C80.7588 1.99528 80.5403 2.52118 80.5392 3.06989V15.2499C80.5374 15.757 80.7267 16.2461 81.0694 16.6199C80.7394 24.8899 80.5392 35.7899 80.5392 47.7299V322.64C80.5392 348.42 81.4693 369.38 82.6095 369.38H452.259C453.4 369.38 454.329 348.42 454.329 322.64V47.7299C454.329 35.7899 454.129 24.8899 453.799 16.6199C454.142 16.2461 454.331 15.7569 454.329 15.2499V3.06989Z" fill="white"/>
<path d="M452.259 370.38H82.6095C81.4795 370.38 80.7973 370.38 80.1477 355.722C79.7552 346.867 79.5392 335.118 79.5392 322.64V47.7299C79.5392 36.2226 79.7278 25.1601 80.0703 16.58C80.7276 -4.76837e-05 81.4763 -6.10352e-05 82.6095 -6.10352e-05H452.259C453.392 -6.10352e-05 454.141 0.002882 454.799 16.58C455.141 25.1523 455.329 36.2148 455.329 47.7299V322.64C455.329 335.119 455.113 346.867 454.721 355.722C454.071 370.38 453.389 370.38 452.259 370.38ZM83.1932 368.38H451.676C452.494 365.245 453.329 347.64 453.329 322.64V47.7299C453.329 36.2407 453.141 25.206 452.8 16.6601V16.6596C452.384 6.1562 451.897 2.9599 451.665 1.99994H83.2041C82.9715 2.95994 82.4852 6.1562 82.0686 16.6596C81.7271 25.2143 81.5392 36.2485 81.5392 47.7299V322.64C81.5392 347.64 82.3748 365.244 83.1932 368.38V368.38Z" fill="#DADDE1"/>
<path d="M452.259 0.999878H82.6095C82.0608 1.00094 81.5349 1.21935 81.1468 1.60732C80.7588 1.99528 80.5403 2.52118 80.5392 3.06989V15.2499C80.5374 15.757 80.7267 16.2461 81.0694 16.6199C81.2616 16.8394 81.4984 17.0153 81.7639 17.136C82.0295 17.2567 82.3177 17.3194 82.6094 17.3199H452.259C452.551 17.3194 452.839 17.2567 453.105 17.136C453.37 17.0153 453.607 16.8394 453.799 16.6199C454.142 16.2461 454.331 15.7569 454.329 15.2499V3.06989C454.328 2.52125 454.11 1.99538 453.722 1.60741C453.334 1.21944 452.808 1.00098 452.259 0.999878V0.999878Z" fill="#BEC3C9"/>
<path d="M92.559 11.505C94.1825 11.505 95.4987 10.1889 95.4987 8.56535C95.4987 6.94184 94.1825 5.62573 92.559 5.62573C90.9355 5.62573 89.6194 6.94184 89.6194 8.56535C89.6194 10.1889 90.9355 11.505 92.559 11.505Z" fill="white"/>
<path d="M103.717 11.505C105.34 11.505 106.656 10.1889 106.656 8.56535C106.656 6.94184 105.34 5.62573 103.717 5.62573C102.093 5.62573 100.777 6.94184 100.777 8.56535C100.777 10.1889 102.093 11.505 103.717 11.505Z" fill="white"/>
<path d="M114.875 11.505C116.499 11.505 117.815 10.1889 117.815 8.56535C117.815 6.94184 116.499 5.62573 114.875 5.62573C113.252 5.62573 111.936 6.94184 111.936 8.56535C111.936 10.1889 113.252 11.505 114.875 11.505Z" fill="white"/>
<path d="M441.329 4.63992H428.479C428.227 4.63992 427.986 4.74001 427.807 4.91817C427.629 5.09633 427.529 5.33796 427.529 5.58992C427.529 5.84188 427.629 6.08351 427.807 6.26167C427.986 6.43983 428.227 6.53993 428.479 6.53993H441.329C441.581 6.53993 441.823 6.43983 442.001 6.26167C442.179 6.08351 442.279 5.84188 442.279 5.58992C442.279 5.33796 442.179 5.09633 442.001 4.91817C441.823 4.74001 441.581 4.63992 441.329 4.63992Z" fill="white"/>
<path d="M441.329 8.20993H428.479C428.227 8.20993 427.986 8.31001 427.807 8.48817C427.629 8.66633 427.529 8.90797 427.529 9.15993C427.529 9.41188 427.629 9.65352 427.807 9.83168C427.986 10.0098 428.227 10.1099 428.479 10.1099H441.329C441.581 10.1099 441.823 10.0098 442.001 9.83168C442.179 9.65352 442.279 9.41188 442.279 9.15993C442.279 8.90797 442.179 8.66633 442.001 8.48817C441.823 8.31001 441.581 8.20993 441.329 8.20993V8.20993Z" fill="white"/>
<path d="M441.329 11.7799H428.479C428.227 11.7799 427.986 11.88 427.807 12.0582C427.629 12.2364 427.529 12.478 427.529 12.7299C427.529 12.9819 427.629 13.2235 427.807 13.4017C427.986 13.5798 428.227 13.6799 428.479 13.6799H441.329C441.581 13.6799 441.823 13.5798 442.001 13.4017C442.179 13.2235 442.279 12.9819 442.279 12.7299C442.279 12.478 442.179 12.2364 442.001 12.0582C441.823 11.88 441.581 11.7799 441.329 11.7799V11.7799Z" fill="white"/>
<path d="M202.089 62.0199H158.829C156.661 62.0226 154.582 62.8853 153.048 64.4188C151.515 65.9522 150.652 68.0313 150.65 70.2V107.67C150.652 109.839 151.515 111.918 153.048 113.451C154.582 114.985 156.661 115.847 158.829 115.85H202.089C204.258 115.847 206.337 114.985 207.871 113.451C209.404 111.918 210.267 109.839 210.269 107.67V70.2C210.267 68.0313 209.404 65.9522 207.871 64.4188C206.337 62.8853 204.258 62.0226 202.089 62.0199V62.0199Z" fill="#1A7A67"/>
<path d="M380.519 76.5099H229.739C228.754 76.5099 227.809 76.9014 227.112 77.5981C226.416 78.2948 226.024 79.2397 226.024 80.2249C226.024 81.2102 226.416 82.1551 227.112 82.8518C227.809 83.5485 228.754 83.9399 229.739 83.9399H380.519C381.504 83.9399 382.449 83.5485 383.146 82.8518C383.843 82.1551 384.234 81.2102 384.234 80.2249C384.234 79.2397 383.843 78.2948 383.146 77.5981C382.449 76.9014 381.504 76.5099 380.519 76.5099V76.5099Z" fill="#DADDE1"/>
<path d="M287.009 93.9199H229.739C228.754 93.9199 227.809 94.3113 227.112 95.008C226.416 95.7047 226.024 96.6496 226.024 97.6349C226.024 98.6201 226.416 99.5651 227.112 100.262C227.809 100.958 228.754 101.35 229.739 101.35H287.009C287.995 101.35 288.94 100.958 289.636 100.262C290.333 99.5651 290.724 98.6201 290.724 97.6349C290.724 96.6496 290.333 95.7047 289.636 95.008C288.94 94.3113 287.995 93.9199 287.009 93.9199V93.9199Z" fill="#DADDE1"/>
<path d="M202.089 162.02H158.829C156.661 162.023 154.582 162.885 153.048 164.419C151.515 165.952 150.652 168.031 150.65 170.2V207.67C150.652 209.839 151.515 211.918 153.048 213.451C154.582 214.985 156.661 215.847 158.829 215.85H202.089C204.258 215.847 206.337 214.985 207.871 213.451C209.404 211.918 210.267 209.839 210.269 207.67V170.2C210.267 168.031 209.404 165.952 207.871 164.419C206.337 162.885 204.258 162.023 202.089 162.02V162.02Z" fill="#1A7A67"/>
<path d="M380.519 176.51H229.739C228.754 176.51 227.809 176.901 227.112 177.598C226.416 178.295 226.024 179.24 226.024 180.225C226.024 181.21 226.416 182.155 227.112 182.852C227.809 183.549 228.754 183.94 229.739 183.94H380.519C381.504 183.94 382.449 183.549 383.146 182.852C383.843 182.155 384.234 181.21 384.234 180.225C384.234 179.24 383.843 178.295 383.146 177.598C382.449 176.901 381.504 176.51 380.519 176.51V176.51Z" fill="#DADDE1"/>
<path d="M287.009 193.92H229.739C228.754 193.92 227.809 194.311 227.112 195.008C226.416 195.705 226.024 196.65 226.024 197.635C226.024 198.62 226.416 199.565 227.112 200.262C227.809 200.958 228.754 201.35 229.739 201.35H287.009C287.995 201.35 288.94 200.958 289.636 200.262C290.333 199.565 290.724 198.62 290.724 197.635C290.724 196.65 290.333 195.705 289.636 195.008C288.94 194.311 287.995 193.92 287.009 193.92V193.92Z" fill="#DADDE1"/>
<path d="M202.089 262.02H158.829C156.661 262.023 154.582 262.885 153.048 264.419C151.515 265.952 150.652 268.031 150.65 270.2V307.67C150.652 309.839 151.515 311.918 153.048 313.451C154.582 314.985 156.661 315.847 158.829 315.85H202.089C204.258 315.847 206.337 314.985 207.871 313.451C209.404 311.918 210.267 309.839 210.269 307.67V270.2C210.267 268.031 209.404 265.952 207.871 264.419C206.337 262.885 204.258 262.023 202.089 262.02V262.02Z" fill="#1A7A67"/>
<path d="M380.519 276.51H229.739C228.754 276.51 227.809 276.901 227.112 277.598C226.416 278.295 226.024 279.24 226.024 280.225C226.024 281.21 226.416 282.155 227.112 282.852C227.809 283.549 228.754 283.94 229.739 283.94H380.519C381.504 283.94 382.449 283.549 383.146 282.852C383.843 282.155 384.234 281.21 384.234 280.225C384.234 279.24 383.843 278.295 383.146 277.598C382.449 276.901 381.504 276.51 380.519 276.51V276.51Z" fill="#DADDE1"/>
<path d="M287.009 293.92H229.739C228.754 293.92 227.809 294.311 227.112 295.008C226.416 295.705 226.024 296.65 226.024 297.635C226.024 298.62 226.416 299.565 227.112 300.262C227.809 300.958 228.754 301.35 229.739 301.35H287.009C287.995 301.35 288.94 300.958 289.636 300.262C290.333 299.565 290.724 298.62 290.724 297.635C290.724 296.65 290.333 295.705 289.636 295.008C288.94 294.311 287.995 293.92 287.009 293.92V293.92Z" fill="#DADDE1"/>
<path d="M518.262 435.38H270.613C269.472 435.38 268.543 417.83 268.543 396.257V166.123C268.543 144.549 269.472 126.999 270.613 126.999H518.262C519.404 126.999 520.333 144.549 520.333 166.123V396.257C520.333 417.83 519.404 435.38 518.262 435.38Z" fill="white"/>
<path d="M518.262 436.38H270.613C269.566 436.38 268.809 436.38 268.151 423.961C267.759 416.546 267.543 406.708 267.543 396.256V166.123C267.543 155.672 267.759 145.833 268.151 138.418C268.809 125.999 269.566 125.999 270.613 125.999H518.262C519.31 125.999 520.067 125.999 520.724 138.418C521.117 145.833 521.333 155.672 521.333 166.123V396.256C521.333 406.708 521.117 416.546 520.724 423.961C520.067 436.38 519.31 436.38 518.262 436.38ZM271.167 434.38H517.709C518.427 431.789 519.333 417.986 519.333 396.256V166.123C519.333 144.393 518.427 130.59 517.709 127.999H271.167C270.449 130.59 269.543 144.393 269.543 166.123V396.256C269.543 417.986 270.449 431.789 271.167 434.38Z" fill="#DADDE1"/>
<path d="M518.262 143.32H270.613C270.064 143.319 269.538 143.101 269.15 142.712C268.762 142.324 268.544 141.798 268.543 141.249V129.07C268.544 128.521 268.762 127.994 269.15 127.606C269.538 127.218 270.064 127 270.613 126.999H518.262C518.811 127 519.337 127.218 519.726 127.606C520.114 127.994 520.332 128.521 520.333 129.07V141.249C520.332 141.798 520.114 142.324 519.726 142.712C519.337 143.101 518.811 143.319 518.262 143.32V143.32Z" fill="#BEC3C9"/>
<path d="M280.559 137.505C282.183 137.505 283.499 136.189 283.499 134.565C283.499 132.942 282.183 131.626 280.559 131.626C278.936 131.626 277.619 132.942 277.619 134.565C277.619 136.189 278.936 137.505 280.559 137.505Z" fill="white"/>
<path d="M291.717 137.505C293.34 137.505 294.656 136.189 294.656 134.565C294.656 132.942 293.34 131.626 291.717 131.626C290.093 131.626 288.777 132.942 288.777 134.565C288.777 136.189 290.093 137.505 291.717 137.505Z" fill="white"/>
<path d="M302.875 137.505C304.499 137.505 305.815 136.189 305.815 134.565C305.815 132.942 304.499 131.626 302.875 131.626C301.252 131.626 299.936 132.942 299.936 134.565C299.936 136.189 301.252 137.505 302.875 137.505Z" fill="white"/>
<path d="M507.33 132.542H494.481C494.229 132.542 493.987 132.442 493.808 132.263C493.63 132.085 493.53 131.843 493.53 131.59C493.53 131.338 493.63 131.096 493.808 130.917C493.987 130.739 494.229 130.639 494.481 130.639H507.33C507.582 130.639 507.823 130.74 508.001 130.918C508.179 131.097 508.279 131.338 508.279 131.59C508.279 131.842 508.179 132.084 508.001 132.262C507.823 132.441 507.582 132.541 507.33 132.542Z" fill="white"/>
<path d="M507.33 136.111H494.481C494.229 136.111 493.987 136.011 493.808 135.832C493.63 135.654 493.53 135.412 493.53 135.159C493.53 134.907 493.63 134.665 493.808 134.486C493.987 134.308 494.229 134.208 494.481 134.208H507.33C507.582 134.208 507.824 134.308 508.003 134.486C508.181 134.665 508.282 134.907 508.282 135.159C508.282 135.412 508.181 135.654 508.003 135.832C507.824 136.011 507.582 136.111 507.33 136.111V136.111Z" fill="white"/>
<path d="M507.33 139.68H494.481C494.229 139.68 493.987 139.58 493.808 139.401C493.63 139.223 493.53 138.981 493.53 138.728C493.53 138.476 493.63 138.234 493.808 138.055C493.987 137.877 494.229 137.777 494.481 137.777H507.33C507.582 137.778 507.823 137.878 508.001 138.057C508.179 138.235 508.279 138.477 508.279 138.728C508.279 138.98 508.179 139.222 508.001 139.4C507.823 139.579 507.582 139.679 507.33 139.68V139.68Z" fill="white"/>
<path d="M346.713 218.917H315.12C313.536 218.915 312.017 218.285 310.897 217.165C309.777 216.045 309.147 214.526 309.145 212.942V185.579C309.147 183.995 309.777 182.476 310.897 181.356C312.017 180.236 313.536 179.606 315.12 179.604H346.713C348.297 179.606 349.816 180.236 350.936 181.356C352.056 182.476 352.686 183.995 352.688 185.579V212.942C352.686 214.526 352.056 216.045 350.936 217.165C349.816 218.285 348.297 218.915 346.713 218.917Z" fill="#1A7A67"/>
<path d="M477.018 195.616H366.907C366.188 195.616 365.498 195.33 364.989 194.821C364.481 194.313 364.195 193.623 364.195 192.903C364.195 192.184 364.481 191.494 364.989 190.985C365.498 190.477 366.188 190.191 366.907 190.191H477.018C477.737 190.191 478.427 190.477 478.936 190.985C479.444 191.494 479.73 192.184 479.73 192.903C479.73 193.623 479.444 194.313 478.936 194.821C478.427 195.33 477.737 195.616 477.018 195.616V195.616Z" fill="#DADDE1"/>
<path d="M408.729 208.33H366.907C366.188 208.33 365.498 208.044 364.989 207.535C364.481 207.027 364.195 206.337 364.195 205.617C364.195 204.898 364.481 204.208 364.989 203.699C365.498 203.191 366.188 202.905 366.907 202.905H408.729C409.086 202.904 409.439 202.974 409.769 203.11C410.098 203.246 410.398 203.446 410.65 203.698C410.903 203.949 411.103 204.249 411.24 204.578C411.376 204.908 411.447 205.261 411.447 205.617C411.447 205.974 411.376 206.327 411.24 206.657C411.103 206.986 410.903 207.285 410.65 207.537C410.398 207.789 410.098 207.989 409.769 208.125C409.439 208.261 409.086 208.33 408.729 208.33Z" fill="#DADDE1"/>
<path d="M346.713 299.917H315.12C313.536 299.915 312.017 299.285 310.897 298.165C309.777 297.045 309.147 295.526 309.145 293.942V266.579C309.147 264.995 309.777 263.476 310.897 262.356C312.017 261.236 313.536 260.606 315.12 260.604H346.713C348.297 260.606 349.816 261.236 350.936 262.356C352.056 263.476 352.686 264.995 352.688 266.579V293.942C352.686 295.526 352.056 297.045 350.936 298.165C349.816 299.285 348.297 299.915 346.713 299.917V299.917Z" fill="#1A7A67"/>
<path d="M477.018 276.616H366.907C366.188 276.616 365.498 276.33 364.989 275.821C364.481 275.313 364.195 274.623 364.195 273.903C364.195 273.184 364.481 272.494 364.989 271.985C365.498 271.477 366.188 271.191 366.907 271.191H477.018C477.737 271.191 478.427 271.477 478.936 271.985C479.444 272.494 479.73 273.184 479.73 273.903C479.73 274.623 479.444 275.313 478.936 275.821C478.427 276.33 477.737 276.616 477.018 276.616V276.616Z" fill="#DADDE1"/>
<path d="M408.729 289.33H366.907C366.188 289.33 365.498 289.044 364.989 288.535C364.481 288.027 364.195 287.337 364.195 286.617C364.195 285.898 364.481 285.208 364.989 284.699C365.498 284.191 366.188 283.905 366.907 283.905H408.729C409.086 283.904 409.439 283.974 409.769 284.11C410.098 284.246 410.398 284.446 410.65 284.698C410.903 284.949 411.103 285.249 411.24 285.578C411.376 285.908 411.447 286.261 411.447 286.617C411.447 286.974 411.376 287.327 411.24 287.657C411.103 287.986 410.903 288.285 410.65 288.537C410.398 288.789 410.098 288.989 409.769 289.125C409.439 289.261 409.086 289.33 408.729 289.33V289.33Z" fill="#DADDE1"/>
<path d="M346.713 380.917H315.12C313.536 380.915 312.017 380.285 310.897 379.165C309.777 378.045 309.147 376.526 309.145 374.942V347.579C309.147 345.995 309.777 344.476 310.897 343.356C312.017 342.236 313.536 341.606 315.12 341.604H346.713C348.297 341.606 349.816 342.236 350.936 343.356C352.056 344.476 352.686 345.995 352.688 347.579V374.942C352.686 376.526 352.056 378.045 350.936 379.165C349.816 380.285 348.297 380.915 346.713 380.917Z" fill="#1A7A67"/>
<path d="M477.018 357.616H366.907C366.188 357.616 365.498 357.33 364.989 356.821C364.481 356.313 364.195 355.623 364.195 354.903C364.195 354.184 364.481 353.494 364.989 352.985C365.498 352.477 366.188 352.191 366.907 352.191H477.018C477.737 352.191 478.427 352.477 478.936 352.985C479.444 353.494 479.73 354.184 479.73 354.903C479.73 355.623 479.444 356.313 478.936 356.821C478.427 357.33 477.737 357.616 477.018 357.616Z" fill="#DADDE1"/>
<path d="M408.729 370.33H366.907C366.188 370.33 365.498 370.044 364.989 369.535C364.481 369.027 364.195 368.337 364.195 367.617C364.195 366.898 364.481 366.208 364.989 365.699C365.498 365.191 366.188 364.905 366.907 364.905H408.729C409.086 364.904 409.439 364.974 409.769 365.11C410.098 365.246 410.398 365.446 410.65 365.698C410.903 365.949 411.103 366.249 411.24 366.578C411.376 366.908 411.447 367.261 411.447 367.617C411.447 367.974 411.376 368.327 411.24 368.657C411.103 368.986 410.903 369.285 410.65 369.537C410.398 369.789 410.098 369.989 409.769 370.125C409.439 370.261 409.086 370.33 408.729 370.33V370.33Z" fill="#DADDE1"/>
</g>
<defs>
<clipPath id="clip0_6_177">
<rect width="731.662" height="436.38" fill="white"/>
</clipPath>
</defs>
</svg>
