<svg width="563" height="592" viewBox="0 0 563 592" fill="none" xmlns="http://www.w3.org/2000/svg">
<g clip-path="url(#clip0_1_2)">
<path d="M182.653 116C214.685 116 240.653 90.0325 240.653 58C240.653 25.9675 214.685 0 182.653 0C150.62 0 124.653 25.9675 124.653 58C124.653 90.0325 150.62 116 182.653 116Z" fill="#444950"/>
<path d="M58.6526 267C90.6852 267 116.653 241.033 116.653 209C116.653 176.967 90.6852 151 58.6526 151C26.6201 151 0.652649 176.967 0.652649 209C0.652649 241.033 26.6201 267 58.6526 267Z" fill="#444950"/>
<path d="M181.653 428C213.685 428 239.653 402.033 239.653 370C239.653 337.967 213.685 312 181.653 312C149.62 312 123.653 337.967 123.653 370C123.653 402.033 149.62 428 181.653 428Z" fill="#444950"/>
<path d="M415.458 564.738C416.198 564.772 416.931 564.577 417.557 564.181C418.183 563.785 418.672 563.206 418.957 562.522C419.243 561.839 419.312 561.084 419.154 560.36C418.997 559.636 418.621 558.978 418.077 558.475C417.985 558.113 417.92 557.853 417.829 557.491C417.862 557.412 417.894 557.333 417.927 557.255C418.673 555.494 419.922 553.992 421.518 552.939C423.115 551.886 424.986 551.327 426.899 551.335C428.811 551.342 430.679 551.914 432.267 552.979C433.855 554.044 435.093 555.555 435.826 557.321C438.753 564.372 442.48 571.434 443.398 578.889C443.802 582.184 443.632 585.524 442.894 588.761C449.77 573.763 453.34 557.462 453.363 540.962C453.364 536.822 453.135 532.685 452.674 528.57C452.294 525.197 451.766 521.848 451.09 518.523C447.405 500.482 439.493 483.571 428.003 469.182C422.442 466.147 417.945 461.481 415.118 455.813C414.093 453.775 413.369 451.6 412.968 449.354C413.596 449.437 414.233 449.488 414.861 449.529C415.056 449.539 415.262 449.55 415.457 449.56L415.531 449.563C416.22 449.594 416.904 449.425 417.5 449.077C418.095 448.728 418.577 448.215 418.888 447.598C419.199 446.982 419.324 446.289 419.25 445.603C419.176 444.917 418.906 444.267 418.471 443.731C418.2 443.398 417.929 443.065 417.658 442.732C417.246 442.217 416.825 441.713 416.414 441.199C416.366 441.15 416.321 441.099 416.28 441.045C415.807 440.459 415.334 439.883 414.861 439.297C415.724 437.957 416.886 436.834 418.254 436.016C422.995 433.24 429.536 435.163 432.96 439.451C436.395 443.739 437.043 449.755 435.85 455.113C434.677 459.672 432.736 463.998 430.111 467.906C430.369 468.235 430.636 468.554 430.893 468.883C435.593 474.927 439.689 481.416 443.123 488.258C442.288 480.593 443.284 472.839 446.031 465.634C448.814 458.919 454.031 453.264 458.626 447.459C464.144 440.486 475.461 443.529 476.433 452.368C476.442 452.453 476.451 452.539 476.46 452.625C475.778 453.01 475.11 453.418 474.456 453.85C473.635 454.399 472.999 455.183 472.631 456.099C472.263 457.016 472.181 458.022 472.394 458.986C472.608 459.95 473.108 460.827 473.828 461.502C474.549 462.177 475.457 462.619 476.432 462.769L476.532 462.785C476.289 465.244 475.86 467.682 475.247 470.076C473.472 476.76 470.335 483.006 466.033 488.421C461.731 493.836 456.357 498.304 450.247 501.545C449.846 501.75 449.455 501.956 449.054 502.151C452.504 511.928 454.668 522.112 455.492 532.447C455.958 538.545 455.931 544.67 455.41 550.763L455.44 550.547C456.757 543.771 460.371 537.658 465.673 533.239C473.547 526.771 484.672 524.389 493.167 519.189C494.07 518.609 495.12 518.3 496.193 518.298C497.266 518.295 498.317 518.599 499.222 519.174C500.128 519.75 500.85 520.572 501.304 521.544C501.758 522.516 501.924 523.598 501.783 524.662C501.772 524.737 501.76 524.813 501.748 524.889C500.482 525.404 499.249 525.999 498.056 526.668C497.374 527.053 496.706 527.461 496.052 527.894C495.231 528.442 494.595 529.226 494.227 530.142C493.859 531.059 493.776 532.065 493.99 533.029C494.204 533.993 494.703 534.87 495.424 535.545C496.145 536.22 497.052 536.662 498.028 536.813L498.128 536.828C498.2 536.838 498.262 536.849 498.334 536.859C496.17 542.025 493.133 546.781 489.356 550.917C484.69 555.924 479.051 559.924 472.784 562.674C466.517 565.424 459.754 566.865 452.911 566.908H452.9C451.043 574.981 448.351 582.839 444.869 590.355H416.177C416.074 590.036 415.981 589.707 415.889 589.388C418.545 589.555 421.211 589.396 423.828 588.915C421.699 586.303 419.571 583.671 417.442 581.059C417.394 581.01 417.35 580.958 417.308 580.904C416.228 579.567 415.138 578.241 414.058 576.904L414.058 576.902C414 572.804 414.471 568.716 415.457 564.738L415.458 564.738Z" fill="#444950"/>
<path d="M190.958 224.739C191.371 226.12 192.081 227.394 193.04 228.471C193.998 229.548 195.181 230.402 196.505 230.972C197.829 231.542 199.262 231.815 200.703 231.772C202.144 231.728 203.558 231.37 204.845 230.721L230.321 253.97L233.703 236.077L208.976 216.8C207.743 214.71 205.785 213.145 203.475 212.401C201.165 211.658 198.662 211.788 196.441 212.766C194.22 213.745 192.435 215.504 191.424 217.711C190.414 219.918 190.248 222.418 190.958 224.739V224.739Z" fill="#FFB6B6"/>
<path d="M279.628 206.968C279.628 206.968 288.511 186.893 299.731 190.883C310.036 194.548 311.405 193.344 305.158 214.352L263.005 277.87C263.005 277.87 218.67 249.693 226.063 249.417C233.456 249.142 233.256 235.032 233.256 235.032L251.337 240.926L252.425 235.21L254.167 236.953L258.664 233.414L279.628 206.968Z" fill="#1ABB9B"/>
<path d="M330.231 254.446L328.357 271.827L329.46 294.62L281.653 289L278.231 254.446L284.275 254.505L330.231 254.446Z" fill="#FFB6B6"/>
<path d="M339.417 570.02H328.379L317.653 487H342.653L339.417 570.02Z" fill="#FFB6B6"/>
<path d="M342.653 503.02V521C342.653 521 326.753 535.23 315.653 522L308.733 463.38C308.733 463.38 308.563 457.89 305.133 454.63C304.84 454.351 304.584 454.035 304.373 453.69C301.893 449.86 302.903 441.94 302.903 441.94C302.903 441.94 298.083 439.34 296.563 430.94C295.043 422.54 290.043 404.19 290.043 404.19C290.043 404.19 279.713 377.1 280.433 359.95C280.563 356.78 280.613 353.89 280.613 351.29C280.583 339.81 279.433 333.88 279.433 333.88L277.343 294.04L281.653 288L301.363 288.58L302.703 288.54L303.193 288.53L323.433 287.92L334.863 294.64C334.863 294.64 335.883 297.18 337.323 300.69C340.013 307.2 344.153 317.05 345.983 320.36C348.803 325.46 347.403 351.7 337.803 363.36C337.803 363.36 333.813 369.03 334.863 371.08C335.813 372.94 334.903 376.09 334.723 376.65V376.66C334.703 376.71 334.693 376.74 334.693 376.74L333.163 410.74C333.163 410.74 333.163 425.31 336.593 430.63C340.023 435.95 342.653 503.02 342.653 503.02Z" fill="#2F2E41"/>
<path d="M345.243 589.144H337.327L335.914 581.671L332.296 589.144H311.302C310.296 589.144 309.316 588.822 308.505 588.226C307.694 587.63 307.096 586.79 306.796 585.829C306.497 584.868 306.512 583.837 306.84 582.886C307.169 581.934 307.792 581.113 308.62 580.541L325.385 568.963V561.407L343.019 562.46L345.243 589.144Z" fill="#2F2E41"/>
<path d="M274.158 570.237L263.293 568.29L267.384 484.68L291.992 489.091L274.158 570.237Z" fill="#FFB6B6"/>
<path d="M337.803 363.36C337.803 363.36 333.813 369.03 334.863 371.08C335.813 372.94 334.903 376.09 334.723 376.65V376.66C333.621 377.531 332.454 378.316 331.233 379.01C331.233 379.01 325.453 382.85 325.693 385.14C325.923 387.43 323.473 390.35 323.473 390.35L309.703 421.47C309.703 421.47 304.403 435.05 305.673 441.25C306.063 443.15 305.433 447.94 304.373 453.69C302.003 466.71 293.423 512.6 293.423 512.6L286.653 529C286.653 529 261.323 521.97 260.653 520C260.653 520 269.653 456.46 267.643 452.18C265.633 447.9 266.623 435.37 268.263 427C269.893 418.62 272.123 370.71 279.023 355C279.583 353.72 280.113 352.48 280.613 351.29C286.183 337.88 287.563 330.34 287.563 330.34L300.083 292.47L301.363 288.58L301.653 290L303.193 288.53L325.713 296.55L337.323 300.69C340.013 307.2 344.153 317.05 345.983 320.36C348.803 325.46 347.403 351.7 337.803 363.36Z" fill="#2F2E41"/>
<path d="M275.827 562.652L263.704 559.729L261.864 559.286L260.536 566.723L241.987 575.164C241.07 575.579 240.31 576.277 239.819 577.156C239.327 578.034 239.13 579.046 239.256 580.045C239.382 581.044 239.824 581.976 240.518 582.704C241.212 583.433 242.122 583.921 243.113 584.095L263.769 587.805L268.653 581.085L268.724 588.695L276.519 590.085L279.037 563.427L275.827 562.652Z" fill="#2F2E41"/>
<path d="M561.485 591.739H1.1907C0.875513 591.738 0.573565 591.613 0.351013 591.389C0.128461 591.166 0.003479 590.864 0.003479 590.549C0.003479 590.233 0.128461 589.931 0.351013 589.708C0.573565 589.485 0.875513 589.359 1.1907 589.358H561.485C561.8 589.359 562.102 589.485 562.324 589.708C562.547 589.931 562.672 590.233 562.672 590.549C562.672 590.864 562.547 591.166 562.324 591.389C562.102 591.613 561.8 591.738 561.485 591.739Z" fill="#CCCCCC"/>
<path d="M308.891 177.21C321.068 177.21 330.939 167.339 330.939 155.163C330.939 142.986 321.068 133.115 308.891 133.115C296.715 133.115 286.843 142.986 286.843 155.163C286.843 167.339 296.715 177.21 308.891 177.21Z" fill="#FFB7B7"/>
<path d="M286.273 197.321L298.27 190.123L303.653 181H317.653L322.262 187.724L343.468 198.522L343.256 231.51L333.653 281L278.653 265L275.278 246.458C275.278 246.458 255.683 225.512 272.478 213.516L286.273 197.321Z" fill="#1ABB9B"/>
<path d="M337.624 339.751C338.764 339.049 339.736 338.106 340.472 336.987C341.208 335.869 341.69 334.603 341.883 333.278C342.077 331.953 341.978 330.602 341.593 329.32C341.208 328.038 340.546 326.856 339.655 325.857L347.391 242.81L327.535 244.344L326.175 325.494C324.596 327.102 323.662 329.234 323.55 331.485C323.438 333.737 324.155 335.951 325.567 337.708C326.978 339.466 328.985 340.644 331.207 341.021C333.43 341.397 335.713 340.946 337.624 339.751H337.624Z" fill="#FFB6B6"/>
<path d="M343.653 198C343.653 198 343.653 199 346.965 208.388C349.803 216.429 354.825 265.834 345.026 277.891C347.758 279.575 343.65 310.794 342.653 314L322.653 309C319.955 304.363 322.827 271.815 324.788 271.043L324.672 256.223L319.554 207.372L339.264 199.298L343.653 198Z" fill="#1ABB9B"/>
<path d="M202.267 237.302L197.223 204.973C197.052 203.867 197.326 202.738 197.986 201.834C198.646 200.929 199.638 200.324 200.744 200.15L207.79 199.051C208.896 198.88 210.025 199.154 210.929 199.814C211.834 200.474 212.439 201.466 212.613 202.572L217.657 234.901C217.828 236.007 217.554 237.136 216.894 238.041C216.234 238.945 215.242 239.55 214.136 239.724L207.09 240.823C205.984 240.995 204.855 240.72 203.951 240.06C203.046 239.4 202.441 238.408 202.267 237.302Z" fill="#3F3D56"/>
<path d="M201.826 201.67C201.23 201.764 200.695 202.09 200.34 202.578C199.984 203.065 199.836 203.673 199.928 204.269L204.973 236.599C205.066 237.195 205.393 237.729 205.88 238.085C206.367 238.44 206.975 238.588 207.572 238.496L214.618 237.397C215.213 237.303 215.748 236.977 216.104 236.489C216.459 236.002 216.607 235.394 216.515 234.798L211.471 202.468C211.377 201.873 211.051 201.338 210.564 200.982C210.076 200.627 209.468 200.479 208.872 200.571L201.826 201.67Z" fill="#1ABB9B"/>
<path d="M341.653 165.291V167.762C341.653 169.357 341.334 170.936 340.715 172.406C340.095 173.876 339.188 175.206 338.046 176.32C336.904 177.433 335.551 178.307 334.066 178.889C332.581 179.471 330.994 179.75 329.4 179.71L313.161 179.194C312.971 177.587 312.44 176.038 311.605 174.651C311.717 176.176 311.502 177.707 310.974 179.142L303.791 178.963C309.486 166.412 311.707 155.743 303.791 150.567H293.147C292.934 149.041 292.415 147.575 291.622 146.254C291.734 147.716 291.541 149.184 291.054 150.567H280.653C280.654 145.267 282.76 140.185 286.507 136.438C290.254 132.691 295.336 130.585 300.635 130.584H303.791C327.581 124.599 340.138 137.388 341.653 165.291Z" fill="#2F2E41"/>
<path d="M99.589 233.442C97.0953 233.442 94.6575 232.703 92.5841 231.317C90.5106 229.932 88.8945 227.963 87.9402 225.659C86.9859 223.355 86.7362 220.82 87.2227 218.374C87.7092 215.928 88.9101 213.681 90.6734 211.918C92.4368 210.155 94.6834 208.954 97.1292 208.467C99.575 207.981 102.11 208.231 104.414 209.185C106.718 210.139 108.687 211.755 110.073 213.829C111.458 215.902 112.197 218.34 112.197 220.834C112.194 224.176 110.864 227.381 108.5 229.745C106.137 232.109 102.932 233.438 99.589 233.442ZM99.589 210.518C97.5487 210.518 95.5542 211.123 93.8577 212.256C92.1613 213.39 90.839 215.001 90.0582 216.886C89.2774 218.771 89.0731 220.845 89.4712 222.846C89.8692 224.847 90.8517 226.685 92.2945 228.128C93.7372 229.571 95.5753 230.553 97.5764 230.951C99.5775 231.349 101.652 231.145 103.537 230.364C105.422 229.584 107.033 228.261 108.166 226.565C109.3 224.868 109.905 222.874 109.905 220.834C109.902 218.099 108.814 215.477 106.88 213.543C104.946 211.609 102.324 210.521 99.589 210.518Z" fill="#EBEDF0"/>
<path d="M99.589 238.6C96.0751 238.6 92.6401 237.558 89.7184 235.606C86.7967 233.654 84.5196 230.879 83.1749 227.633C81.8301 224.386 81.4783 220.814 82.1638 217.368C82.8494 213.921 84.5414 210.755 87.0261 208.271C89.5108 205.786 92.6765 204.094 96.1229 203.408C99.5692 202.723 103.142 203.075 106.388 204.419C109.634 205.764 112.409 208.041 114.361 210.963C116.313 213.885 117.355 217.32 117.355 220.834C117.35 225.544 115.477 230.06 112.146 233.391C108.815 236.721 104.299 238.595 99.589 238.6ZM99.589 205.36C96.5285 205.36 93.5367 206.267 90.992 207.967C88.4473 209.668 86.464 212.084 85.2928 214.912C84.1216 217.739 83.8151 220.851 84.4122 223.852C85.0093 226.854 86.4831 229.611 88.6471 231.775C90.8112 233.939 93.5684 235.413 96.5701 236.01C99.5718 236.607 102.683 236.301 105.511 235.13C108.338 233.959 110.755 231.975 112.455 229.431C114.155 226.886 115.063 223.894 115.063 220.834C115.058 216.731 113.427 212.798 110.526 209.897C107.625 206.996 103.692 205.364 99.589 205.36Z" fill="#EBEDF0"/>
<path d="M99.589 258.086C92.2211 258.086 85.0188 255.901 78.8927 251.808C72.7665 247.715 67.9918 241.896 65.1723 235.09C62.3527 228.283 61.615 220.792 63.0524 213.566C64.4897 206.34 68.0377 199.702 73.2475 194.492C78.4574 189.282 85.0951 185.734 92.3214 184.297C99.5476 182.86 107.038 183.597 113.845 186.417C120.652 189.236 126.47 194.011 130.563 200.137C134.657 206.263 136.841 213.466 136.841 220.834C136.83 230.71 132.902 240.179 125.918 247.163C118.934 254.146 109.465 258.075 99.589 258.086ZM99.589 185.874C92.6746 185.874 85.9154 187.924 80.1663 191.766C74.4171 195.607 69.9362 201.067 67.2902 207.455C64.6442 213.843 63.9519 220.872 65.3008 227.654C66.6497 234.436 69.9793 240.665 74.8686 245.554C79.7578 250.443 85.9871 253.773 92.7686 255.122C99.5502 256.471 106.579 255.778 112.968 253.132C119.356 250.486 124.816 246.005 128.657 240.256C132.499 234.507 134.549 227.748 134.549 220.834C134.538 211.565 130.852 202.679 124.298 196.125C117.744 189.571 108.858 185.884 99.589 185.874V185.874Z" fill="#EBEDF0"/>
<path d="M69.9662 201.072L68.0062 202.261L82.8623 226.755L84.8223 225.566L69.9662 201.072Z" fill="#EBEDF0"/>
<path d="M131.634 203.064L103.194 203.467L103.226 205.76L131.666 205.357L131.634 203.064Z" fill="#EBEDF0"/>
<path d="M143.685 352.817L142.454 350.883C145.524 348.93 149.08 347.878 152.718 347.847L152.74 350.139C149.531 350.167 146.393 351.095 143.685 352.817Z" fill="#EBEDF0"/>
<path d="M154.404 403.998C146.794 404.071 139.349 401.775 133.102 397.428C126.855 393.081 122.115 386.899 119.538 379.737C116.962 372.576 116.677 364.791 118.722 357.46C120.768 350.13 125.043 343.617 130.955 338.825L132.4 340.605C127.125 344.881 123.234 350.622 121.218 357.105C119.201 363.588 119.149 370.524 121.068 377.036C122.987 383.549 126.791 389.348 132.001 393.703C137.211 398.057 143.593 400.771 150.343 401.503C157.093 402.236 163.909 400.954 169.931 397.818C175.954 394.683 180.913 389.835 184.184 383.885C187.456 377.935 188.892 371.15 188.313 364.385C187.734 357.62 185.165 351.178 180.931 345.871L182.721 344.44C187.857 350.83 190.68 358.77 190.729 366.969C190.812 376.693 187.034 386.053 180.224 392.995C173.414 399.937 164.128 403.894 154.404 403.998Z" fill="#EBEDF0"/>
<path d="M139.358 370.166L137.159 369.517C137.578 368.026 138.383 366.672 139.493 365.59C140.603 364.509 141.978 363.739 143.479 363.359L143.664 363.337L150.534 363.072L153.167 359.86L151.142 359.207L141.295 351.968L141.222 344.368L130.973 351.344L130.862 339.803L133.154 339.781L133.224 347.038L143.474 340.062L143.577 350.8L152.2 357.139L157.074 358.712L151.652 365.322L143.862 365.623C142.785 365.931 141.806 366.511 141.017 367.306C140.228 368.102 139.657 369.086 139.358 370.166Z" fill="#EBEDF0"/>
<path d="M186.164 359.833L164.645 329.525C153.8 332.294 153.395 348.846 153.392 349.017L151.101 348.978C151.114 348.191 151.576 329.675 164.924 327.115L165.647 326.976L181.298 349.02L180.223 344.392L182.456 343.874L186.164 359.833Z" fill="#EBEDF0"/>
<path d="M153.644 384.519C149.496 384.536 145.489 383.01 142.403 380.239C139.316 377.467 137.37 373.647 136.943 369.521L139.224 369.3C139.585 372.973 141.349 376.365 144.149 378.769C146.949 381.174 150.568 382.405 154.254 382.206C157.939 382.008 161.405 380.396 163.931 377.705C166.457 375.014 167.847 371.452 167.811 367.762C167.797 365.296 167.143 362.876 165.912 360.74C164.681 358.603 162.917 356.822 160.791 355.573L155.749 352.577L165.664 354.076C162.039 351.16 157.431 349.75 152.795 350.138L152.664 347.848C164.161 347.187 169.559 354.74 169.783 355.062L171.303 357.247L165.465 356.365C167.714 358.706 169.23 361.654 169.824 364.846C170.418 368.037 170.064 371.333 168.808 374.327C167.551 377.32 165.445 379.881 162.751 381.692C160.056 383.503 156.89 384.486 153.644 384.519V384.519Z" fill="#EBEDF0"/>
<path d="M183.63 50.4808C183.447 50.2974 183.275 50.1254 183.092 49.9421C176.187 43.1916 166.898 39.4374 157.242 39.4945C147.586 39.5516 138.343 43.4155 131.519 50.2472C124.695 57.0789 120.841 66.3268 120.794 75.9828C120.748 85.6388 124.513 94.9233 131.271 101.82C131.431 101.992 131.603 102.164 131.775 102.336C138.671 109.117 147.967 112.899 157.639 112.858C167.31 112.817 176.574 108.957 183.413 102.118C190.251 95.2794 194.111 86.0158 194.152 76.3443C194.193 66.6729 190.411 57.377 183.63 50.4808ZM157.473 110.566C148.626 110.574 140.118 107.157 133.735 101.029C133.345 100.663 132.967 100.284 132.612 99.8947C126.407 93.4059 122.989 84.7465 123.089 75.7694C123.188 66.7924 126.798 58.2108 133.144 51.8612C139.491 45.5116 148.071 41.8983 157.048 41.7945C166.025 41.6908 174.686 45.1048 181.177 51.3061C181.567 51.6729 181.945 52.0512 182.312 52.4408C186.971 57.3042 190.099 63.4297 191.305 70.0558C192.511 76.682 191.743 83.5165 189.096 89.7098C186.45 95.903 182.041 101.182 176.419 104.89C170.797 108.598 164.208 110.572 157.473 110.566Z" fill="#EBEDF0"/>
<path d="M183.092 49.9421L181.177 51.3061L153.141 71.1702L152.063 71.9267L132.612 99.8947L131.271 101.82C131.431 101.992 131.603 102.164 131.775 102.336L133.735 101.029L161.772 82.3345L162.884 81.5894L182.312 52.4409L183.63 50.4807C183.447 50.2974 183.275 50.1255 183.092 49.9421ZM161.829 79.0448L161.233 79.9388L160.178 80.6381L138.939 94.7939L153.095 74.4484L153.714 73.5543L154.734 72.8322L176.008 57.7708L161.829 79.0448Z" fill="#EBEDF0"/>
<path d="M153.642 71.8753L152.132 73.6006L161.302 81.6241L162.812 79.8988L153.642 71.8753Z" fill="#EBEDF0"/>
<path d="M158.046 43.5118H155.754V48.8819H158.046V43.5118Z" fill="#EBEDF0"/>
<path d="M158.046 101.969H155.754V107.34H158.046V101.969Z" fill="#EBEDF0"/>
<path d="M158.046 43.5118H155.754V48.8819H158.046V43.5118Z" fill="white"/>
<path d="M158.046 101.969H155.754V107.34H158.046V101.969Z" fill="white"/>
<path d="M167.687 45.3685L165.694 50.3553L167.823 51.206L169.816 46.2192L167.687 45.3685Z" fill="#EBEDF0"/>
<path d="M145.977 99.6452L143.985 104.632L146.114 105.483L148.106 100.496L145.977 99.6452Z" fill="#EBEDF0"/>
<path d="M167.687 45.3685L165.694 50.3553L167.823 51.206L169.816 46.2192L167.687 45.3685Z" fill="white"/>
<path d="M145.977 99.6452L143.985 104.632L146.114 105.483L148.106 100.496L145.977 99.6452Z" fill="white"/>
<path d="M174.862 49.0216L171.685 53.3506L173.533 54.7073L176.71 50.3783L174.862 49.0216Z" fill="#EBEDF0"/>
<path d="M140.268 96.144L137.09 100.473L138.938 101.83L142.116 97.5006L140.268 96.144Z" fill="#EBEDF0"/>
<path d="M174.862 49.0216L171.685 53.3506L173.533 54.7073L176.71 50.3783L174.862 49.0216Z" fill="white"/>
<path d="M140.268 96.144L137.09 100.473L138.938 101.83L142.116 97.5006L140.268 96.144Z" fill="white"/>
<path d="M182.816 56.7663L178.348 59.7451L179.62 61.6525L184.088 58.6737L182.816 56.7663Z" fill="#EBEDF0"/>
<path d="M134.181 89.1987L129.713 92.1775L130.984 94.0849L135.452 91.1061L134.181 89.1987Z" fill="#EBEDF0"/>
<path d="M182.816 56.7663L178.348 59.7451L179.62 61.6525L184.088 58.6737L182.816 56.7663Z" fill="white"/>
<path d="M134.181 89.1987L129.713 92.1775L130.984 94.0849L135.452 91.1061L134.181 89.1987Z" fill="white"/>
<path d="M186.891 64.4534L181.784 66.1162L182.494 68.2956L187.6 66.6328L186.891 64.4534Z" fill="#EBEDF0"/>
<path d="M131.308 82.5548L126.202 84.2177L126.911 86.3971L132.018 84.7342L131.308 82.5548Z" fill="#EBEDF0"/>
<path d="M186.891 64.4534L181.784 66.1162L182.494 68.2956L187.6 66.6328L186.891 64.4534Z" fill="white"/>
<path d="M131.308 82.5548L126.202 84.2177L126.911 86.3971L132.018 84.7342L131.308 82.5548Z" fill="white"/>
<path d="M188.786 73.6728L183.417 73.7751L183.461 76.0675L188.83 75.9653L188.786 73.6728Z" fill="#EBEDF0"/>
<path d="M130.339 74.7838L124.97 74.886L125.014 77.1785L130.383 77.0762L130.339 74.7838Z" fill="#EBEDF0"/>
<path d="M188.786 73.6728L183.417 73.7751L183.461 76.0675L188.83 75.9653L188.786 73.6728Z" fill="white"/>
<path d="M130.339 74.7838L124.97 74.886L125.014 77.1785L130.383 77.0762L130.339 74.7838Z" fill="white"/>
<path d="M183.037 80.1966L182.529 82.4319L187.765 83.6229L188.273 81.3876L183.037 80.1966Z" fill="#EBEDF0"/>
<path d="M126.036 67.2283L125.527 69.4636L130.764 70.6546L131.272 68.4193L126.036 67.2283Z" fill="#EBEDF0"/>
<path d="M183.037 80.1966L182.529 82.4319L187.765 83.6229L188.273 81.3876L183.037 80.1966Z" fill="white"/>
<path d="M126.036 67.2283L125.527 69.4636L130.764 70.6546L131.272 68.4193L126.036 67.2283Z" fill="white"/>
<path d="M181.05 86.5014L180.005 88.542L184.786 90.9889L185.83 88.9484L181.05 86.5014Z" fill="#EBEDF0"/>
<path d="M129.015 59.8623L127.97 61.9028L132.751 64.3498L133.795 62.3092L129.015 59.8623Z" fill="#EBEDF0"/>
<path d="M181.05 86.5014L180.005 88.542L184.786 90.9889L185.83 88.9484L181.05 86.5014Z" fill="white"/>
<path d="M129.015 59.8623L127.97 61.9028L132.751 64.3498L133.795 62.3092L129.015 59.8623Z" fill="white"/>
<path d="M177.911 91.6869L176.431 93.4375L180.532 96.9047L182.012 95.1541L177.911 91.6869Z" fill="#EBEDF0"/>
<path d="M133.268 53.9465L131.788 55.6971L135.89 59.1643L137.37 57.4137L133.268 53.9465Z" fill="#EBEDF0"/>
<path d="M177.911 91.6869L176.431 93.4375L180.532 96.9047L182.012 95.1541L177.911 91.6869Z" fill="white"/>
<path d="M133.268 53.9465L131.788 55.6971L135.89 59.1643L137.37 57.4137L133.268 53.9465Z" fill="white"/>
<path d="M173.941 95.8092L172.12 97.2023L175.383 101.467L177.204 100.074L173.941 95.8092Z" fill="#EBEDF0"/>
<path d="M138.417 49.3842L136.596 50.7773L139.859 55.0421L141.68 53.649L138.417 49.3842Z" fill="#EBEDF0"/>
<path d="M173.941 95.8092L172.12 97.2023L175.383 101.467L177.204 100.074L173.941 95.8092Z" fill="white"/>
<path d="M138.417 49.3842L136.596 50.7773L139.859 55.0421L141.68 53.649L138.417 49.3842Z" fill="white"/>
<path d="M169.238 98.9555L167.164 99.9315L169.45 104.791L171.524 103.815L169.238 98.9555Z" fill="#EBEDF0"/>
<path d="M144.351 46.0606L142.276 47.0366L144.563 51.8957L146.637 50.9198L144.351 46.0606Z" fill="#EBEDF0"/>
<path d="M169.238 98.9555L167.164 99.9315L169.45 104.791L171.524 103.815L169.238 98.9555Z" fill="white"/>
<path d="M144.351 46.0606L142.276 47.0366L144.563 51.8957L146.637 50.9198L144.351 46.0606Z" fill="white"/>
<path d="M163.506 101.16L161.263 101.634L162.372 106.888L164.615 106.414L163.506 101.16Z" fill="#EBEDF0"/>
<path d="M151.428 43.9634L149.185 44.437L150.294 49.6912L152.538 49.2177L151.428 43.9634Z" fill="#EBEDF0"/>
<path d="M163.506 101.16L161.263 101.634L162.372 106.888L164.615 106.414L163.506 101.16Z" fill="white"/>
<path d="M151.428 43.9634L149.185 44.437L150.294 49.6912L152.538 49.2177L151.428 43.9634Z" fill="white"/>
<path d="M150.715 101.264L149.692 106.536L151.942 106.972L152.965 101.701L150.715 101.264Z" fill="#EBEDF0"/>
<path d="M161.859 43.8789L160.836 49.1506L163.086 49.5872L164.109 44.3154L161.859 43.8789Z" fill="#EBEDF0"/>
<path d="M150.715 101.264L149.692 106.536L151.942 106.972L152.965 101.701L150.715 101.264Z" fill="white"/>
<path d="M161.859 43.8789L160.836 49.1506L163.086 49.5872L164.109 44.3154L161.859 43.8789Z" fill="white"/>
<path d="M109.316 232.969L96.1697 256.378L98.1688 257.501L111.315 234.092L109.316 232.969Z" fill="#EBEDF0"/>
</g>
<defs>
<clipPath id="clip0_1_2">
<rect width="562.675" height="591.739" fill="white"/>
</clipPath>
</defs>
</svg>
