<svg width="795" height="506" viewBox="0 0 795 506" fill="none" xmlns="http://www.w3.org/2000/svg">
<g clip-path="url(#clip0_3_122)">
<path d="M44.5189 503.871C32.2679 502.863 21.4519 494 15.3009 483.357C13.2381 479.788 11.8248 475.107 14.1607 471.71C14.8293 470.738 15.7533 469.969 16.8309 469.488C17.9085 469.008 19.0979 468.834 20.268 468.986C21.4381 469.138 22.5434 469.61 23.4623 470.351C24.3812 471.091 25.0779 472.07 25.4757 473.181C24.7233 469.012 24.4 464.776 24.5108 460.54C24.605 456.954 25.2826 452.9 28.2644 450.906C31.7237 448.592 36.7099 450.429 39.2261 453.744C41.7423 457.059 42.425 461.37 43.0289 465.488C42.5359 463.745 42.4878 461.907 42.8891 460.14C43.2903 458.374 44.1282 456.737 45.3258 455.378C46.5235 454.02 48.0428 452.983 49.7447 452.363C51.4465 451.743 53.2767 451.56 55.0676 451.831C60.1343 452.596 64.1034 456.983 65.6521 461.867C67.2009 466.752 66.7173 472.048 65.7205 477.074C64.5517 482.968 62.6547 488.815 59.2396 493.758C55.8244 498.702 50.7515 502.687 44.866 503.897L44.5189 503.871Z" fill="#444950"/>
<path d="M794.122 106C794.122 127.984 787.289 149.424 774.569 167.354C761.849 185.284 743.871 198.817 723.122 206.08C722.462 206.31 721.792 206.54 721.122 206.75V99.04H582.352C582.392 98.37 582.442 97.7 582.502 97.04H721.122V76C721.121 74.6741 720.594 73.4026 719.657 72.4651C718.719 71.5275 717.448 71.0005 716.122 71H588.042C588.272 70.33 588.512 69.66 588.772 69C597.449 45.7103 614.032 26.2096 635.626 13.9047C657.22 1.59972 682.45 -2.72714 706.91 1.68C731.369 6.08714 753.503 18.9481 769.444 38.016C785.385 57.0839 794.119 81.1465 794.122 106Z" fill="#444950"/>
<path d="M716.122 69H229.122C227.266 69.0021 225.487 69.7402 224.174 71.0525C222.862 72.3648 222.124 74.1441 222.122 76V406C222.124 407.856 222.862 409.635 224.174 410.947C225.487 412.26 227.266 412.998 229.122 413H716.122C717.978 412.998 719.757 412.26 721.069 410.947C722.382 409.635 723.12 407.856 723.122 406V76C723.12 74.1441 722.382 72.3648 721.069 71.0525C719.757 69.7402 717.978 69.0021 716.122 69V69ZM721.122 406C721.121 407.326 720.594 408.597 719.657 409.535C718.719 410.473 717.448 411 716.122 411H229.122C227.796 411 226.524 410.473 225.587 409.535C224.649 408.597 224.122 407.326 224.122 406V76C224.122 74.6741 224.649 73.4026 225.587 72.4651C226.524 71.5275 227.796 71.0005 229.122 71H716.122C717.448 71.0005 718.719 71.5275 719.657 72.4651C720.594 73.4026 721.121 74.6741 721.122 76V406Z" fill="#DADDE1"/>
<path d="M722.122 97.04H223.122V99.04H722.122V97.04Z" fill="#DADDE1"/>
<path d="M240.122 90C243.436 90 246.122 87.3137 246.122 84C246.122 80.6863 243.436 78 240.122 78C236.808 78 234.122 80.6863 234.122 84C234.122 87.3137 236.808 90 240.122 90Z" fill="#DADDE1"/>
<path d="M257.372 90C260.686 90 263.372 87.3137 263.372 84C263.372 80.6863 260.686 78 257.372 78C254.058 78 251.372 80.6863 251.372 84C251.372 87.3137 254.058 90 257.372 90Z" fill="#DADDE1"/>
<path d="M274.622 90C277.936 90 280.622 87.3137 280.622 84C280.622 80.6863 277.936 78 274.622 78C271.308 78 268.622 80.6863 268.622 84C268.622 87.3137 271.308 90 274.622 90Z" fill="#DADDE1"/>
<path d="M359.122 138H271.122C269.266 138.002 267.487 138.74 266.174 140.053C264.862 141.365 264.124 143.144 264.122 145V233C264.124 234.856 264.862 236.635 266.174 237.947C267.487 239.26 269.266 239.998 271.122 240H359.122C360.978 239.998 362.757 239.26 364.069 237.947C365.382 236.635 366.12 234.856 366.122 233V145C366.12 143.144 365.382 141.365 364.069 140.053C362.757 138.74 360.978 138.002 359.122 138V138ZM364.122 233C364.121 234.326 363.594 235.597 362.657 236.535C361.719 237.473 360.448 237.999 359.122 238H271.122C269.796 237.999 268.524 237.473 267.587 236.535C266.649 235.597 266.122 234.326 266.122 233V145C266.122 143.674 266.649 142.403 267.587 141.465C268.524 140.527 269.796 140.001 271.122 140H359.122C360.448 140.001 361.719 140.527 362.657 141.465C363.594 142.403 364.121 143.674 364.122 145V233Z" fill="#DADDE1"/>
<path d="M517.122 138.5H429.122C427.399 138.503 425.748 139.189 424.529 140.408C423.311 141.626 422.625 143.277 422.622 145V233C422.625 234.723 423.311 236.374 424.529 237.593C425.748 238.811 427.399 239.497 429.122 239.5H517.122C518.845 239.497 520.496 238.811 521.714 237.593C522.933 236.374 523.618 234.723 523.622 233V145C523.618 143.277 522.933 141.626 521.714 140.408C520.496 139.189 518.845 138.503 517.122 138.5Z" fill="#1ABB9B"/>
<path d="M675.122 138.5H587.122C585.399 138.503 583.748 139.189 582.529 140.408C581.311 141.626 580.625 143.277 580.622 145V233C580.625 234.723 581.311 236.374 582.529 237.593C583.748 238.811 585.399 239.497 587.122 239.5H675.122C676.845 239.497 678.496 238.811 679.714 237.593C680.933 236.374 681.618 234.723 681.622 233V145C681.618 143.277 680.933 141.626 679.714 140.408C678.496 139.189 676.845 138.503 675.122 138.5V138.5Z" fill="#606770"/>
<path d="M359.122 270.5H271.122C269.399 270.503 267.748 271.189 266.529 272.408C265.311 273.626 264.625 275.277 264.622 277V365C264.625 366.723 265.311 368.374 266.529 369.592C267.748 370.811 269.399 371.497 271.122 371.5H359.122C360.845 371.497 362.496 370.811 363.714 369.592C364.933 368.374 365.618 366.723 365.622 365V277C365.618 275.277 364.933 273.626 363.714 272.408C362.496 271.189 360.845 270.503 359.122 270.5V270.5Z" fill="#606770"/>
<path d="M517.122 270.5H429.122C427.399 270.503 425.748 271.189 424.529 272.408C423.311 273.626 422.625 275.277 422.622 277V365C422.625 366.723 423.311 368.374 424.529 369.592C425.748 370.811 427.399 371.497 429.122 371.5H517.122C518.845 371.497 520.496 370.811 521.714 369.592C522.933 368.374 523.618 366.723 523.622 365V277C523.618 275.277 522.933 273.626 521.714 272.408C520.496 271.189 518.845 270.503 517.122 270.5Z" fill="#1ABB9B"/>
<path d="M675.122 270.5H587.122C585.399 270.503 583.748 271.189 582.529 272.408C581.311 273.626 580.625 275.277 580.622 277V365C580.625 366.723 581.311 368.374 582.529 369.592C583.748 370.811 585.399 371.497 587.122 371.5H675.122C676.845 371.497 678.496 370.811 679.714 369.592C680.933 368.374 681.618 366.723 681.622 365V277C681.618 275.277 680.933 273.626 679.714 272.408C678.496 271.189 676.845 270.503 675.122 270.5V270.5Z" fill="#606770"/>
<path d="M337.622 285H249.622C247.899 284.998 246.246 284.313 245.028 283.094C243.809 281.875 243.124 280.223 243.122 278.5V190.5C243.124 188.777 243.809 187.125 245.028 185.906C246.246 184.687 247.899 184.002 249.622 184H337.622C339.345 184.002 340.997 184.687 342.216 185.906C343.434 187.125 344.12 188.777 344.122 190.5V278.5C344.12 280.223 343.434 281.875 342.216 283.094C340.997 284.313 339.345 284.998 337.622 285Z" fill="#1ABB9B"/>
<path d="M202.746 492.088L214.466 488.491L206.17 441.573L188.872 446.881L202.746 492.088Z" fill="#A0616A"/>
<path d="M240.41 492.438L203.575 503.742L199.207 489.51L221.81 482.573C223.679 482 225.643 481.8 227.589 481.985C229.535 482.171 231.426 482.737 233.153 483.653C234.88 484.569 236.41 485.817 237.655 487.324C238.9 488.831 239.836 490.569 240.41 492.438V492.438V492.438Z" fill="#2F2E41"/>
<path d="M102.748 492.358L115.008 492.357L120.84 445.069L102.746 445.07L102.748 492.358Z" fill="#A0616A"/>
<path d="M138.652 503.74L100.121 503.742L100.121 488.855L123.764 488.854C125.719 488.854 127.655 489.239 129.461 489.987C131.268 490.735 132.909 491.832 134.291 493.214C135.674 494.596 136.77 496.237 137.519 498.043C138.267 499.849 138.652 501.785 138.652 503.74L138.652 503.74Z" fill="#2F2E41"/>
<path d="M101.868 355.28C100.861 354.398 100.06 353.304 99.5206 352.078C98.9816 350.852 98.7179 349.523 98.7482 348.183C98.7785 346.844 99.1021 345.528 99.6961 344.328C100.29 343.127 101.14 342.071 102.186 341.235L111.692 221.54L131.022 226.37L115.545 343.129C116.834 344.979 117.399 347.238 117.133 349.478C116.868 351.717 115.79 353.781 114.104 355.279C112.418 356.777 110.242 357.605 107.986 357.605C105.731 357.605 103.554 356.778 101.868 355.28Z" fill="#A0616A"/>
<path d="M140.579 175.116C154.144 175.116 165.14 164.12 165.14 150.555C165.14 136.991 154.144 125.994 140.579 125.994C127.015 125.994 116.018 136.991 116.018 150.555C116.018 164.12 127.015 175.116 140.579 175.116Z" fill="#A0616A"/>
<path d="M119.223 217.859C113.681 210.25 113.51 199.772 119.48 192.495C123.376 187.745 129.892 183.945 140.772 183.945C169.772 183.945 180.772 206.945 180.772 206.945C180.772 206.945 192.772 228.945 185.772 248.945C178.772 268.945 178.772 270.945 178.772 270.945L132.772 266.945C132.772 266.945 140.532 247.113 119.223 217.859Z" fill="#DADDE1"/>
<path d="M105.037 237.767L114.947 205.346C115.611 203.175 116.743 201.177 118.264 199.492C119.785 197.807 121.658 196.476 123.75 195.594C125.842 194.712 128.102 194.301 130.37 194.388C132.638 194.476 134.86 195.061 136.877 196.101V196.101C140.378 197.914 143.058 200.99 144.374 204.706C145.69 208.422 145.544 212.499 143.965 216.111L131.367 244.802L105.037 237.767Z" fill="#DADDE1"/>
<path d="M177.772 265.945L216.772 467.945L195.772 473.945L144.772 340.945L121.772 476.945L99.7721 479.945C99.7721 479.945 90.1218 300 132.772 266.945L177.772 265.945Z" fill="#2F2E41"/>
<path d="M233.903 256.477C233.547 256.901 233.226 257.352 232.941 257.827L183.406 260.228L173.867 231.109L157.305 238.98L172.893 282.352L234.155 270.371C235.595 271.942 237.479 273.039 239.556 273.513C241.634 273.988 243.807 273.819 245.787 273.029C247.766 272.239 249.458 270.865 250.637 269.09C251.817 267.314 252.428 265.222 252.389 263.091C252.35 260.96 251.664 258.892 250.421 257.16C249.178 255.429 247.437 254.117 245.431 253.399C243.424 252.681 241.246 252.591 239.187 253.141C237.128 253.691 235.285 254.855 233.903 256.477Z" fill="#A0616A"/>
<path d="M150.375 209.849C150.11 207.595 150.343 205.309 151.058 203.155C151.773 201 152.953 199.029 154.514 197.381C156.074 195.732 157.978 194.447 160.09 193.615C162.203 192.783 164.472 192.425 166.737 192.567V192.567C170.671 192.82 174.362 194.559 177.061 197.432C179.76 200.305 181.266 204.097 181.272 208.039V239.374L154.336 243.518L150.375 209.849Z" fill="#DADDE1"/>
<path d="M145.981 175.339C142.294 175.323 139.451 171.442 139.616 167.759C139.781 164.076 142.254 160.836 145.234 158.666C148.214 156.496 151.709 155.174 155.032 153.579C158.356 151.983 161.65 149.993 163.702 146.931C164.941 144.926 165.681 142.653 165.859 140.303C166.037 137.953 165.648 135.595 164.725 133.426C162.816 129.089 159.537 125.498 155.392 123.202C149.234 119.598 141.944 118.445 134.975 119.974C128.006 121.503 121.868 125.601 117.785 131.452L113.577 142.91C109.289 148.066 108.609 155.724 111.244 161.89C113.88 168.056 119.493 172.696 125.826 174.901C132.251 176.966 139.129 177.172 145.667 175.496" fill="#2F2E41"/>
<path d="M123.534 137.179C121.725 134.279 118.59 132.435 115.348 131.353C111.593 130.1 107.599 129.73 103.677 130.272C99.7558 130.814 96.0123 132.255 92.7384 134.481C89.4645 136.707 86.7485 139.658 84.802 143.105C82.8554 146.553 81.7308 150.403 81.5157 154.356C81.1722 160.67 83.1494 166.845 84.3112 173.061C85.473 179.277 85.7041 186.143 82.2767 191.457C79.6662 195.505 75.3128 198.054 71.0159 200.23C67.4346 202.044 63.5608 203.746 59.5628 203.384C55.5647 203.023 51.5463 199.856 51.6524 195.843C50.314 198.72 49.4103 201.781 48.9708 204.923C48.6895 208.079 49.4674 211.485 51.7468 213.685C55.0599 216.884 60.3094 216.65 64.8625 215.96C74.7195 214.466 84.7007 211.664 92.4881 205.439C100.275 199.215 105.443 188.965 103.392 179.208C102.535 175.133 100.522 171.412 98.8952 167.579C97.2684 163.745 95.9983 159.552 96.7456 155.455C97.1879 153.344 98.0882 151.356 99.3828 149.631C100.677 147.906 102.335 146.487 104.238 145.473C108.087 143.471 112.491 142.804 116.761 143.574C119.56 144.033 123.055 144.746 124.715 142.446C125.155 141.718 125.38 140.879 125.363 140.029C125.347 139.178 125.089 138.349 124.621 137.638C123.664 136.232 122.444 135.023 121.029 134.078" fill="#2F2E41"/>
<path d="M308.485 505.345H1.19073C1.03408 505.346 0.878868 505.315 0.734009 505.255C0.589149 505.196 0.457489 505.108 0.346558 504.998C0.235626 504.887 0.147609 504.756 0.0875549 504.611C0.0275012 504.466 -0.00341797 504.311 -0.00341797 504.154C-0.00341797 503.998 0.0275012 503.843 0.0875549 503.698C0.147609 503.553 0.235626 503.422 0.346558 503.311C0.457489 503.201 0.589149 503.113 0.734009 503.053C0.878868 502.994 1.03408 502.963 1.19073 502.964H308.485C308.641 502.963 308.797 502.994 308.941 503.053C309.086 503.113 309.218 503.201 309.329 503.311C309.44 503.422 309.528 503.553 309.588 503.698C309.648 503.843 309.679 503.998 309.679 504.154C309.679 504.311 309.648 504.466 309.588 504.611C309.528 504.756 309.44 504.887 309.329 504.998C309.218 505.108 309.086 505.196 308.941 505.255C308.797 505.315 308.641 505.346 308.485 505.345V505.345Z" fill="#DADDE1"/>
</g>
<defs>
<clipPath id="clip0_3_122">
<rect width="794.122" height="505.345" fill="white"/>
</clipPath>
</defs>
</svg>
